<svg width="22" height="15" viewBox="0 0 22 15" fill="none" xmlns="http://www.w3.org/2000/svg">
<path d="M14.9228 10.1081C14.8951 10.8003 15.1269 11.4778 15.5728 12.0081C15.8022 12.2151 16.0709 12.3741 16.363 12.4754C16.655 12.5767 16.9643 12.6185 17.2728 12.5981C17.7647 12.6119 18.2482 12.4682 18.6528 12.1881C18.9766 11.9817 19.2255 11.6767 19.3628 11.3181H21.6728C21.4166 12.3356 20.8115 13.231 19.9628 13.8481C19.1308 14.3688 18.1639 14.6331 17.1828 14.6081C16.499 14.6094 15.8208 14.484 15.1828 14.2381C14.6004 14.0196 14.0718 13.6786 13.6328 13.2381C13.1928 12.7678 12.8527 12.2133 12.6328 11.6081C12.1679 10.2706 12.1679 8.81548 12.6328 7.47805C12.8529 6.86995 13.193 6.31226 13.6328 5.83805C14.067 5.36476 14.5948 4.98678 15.1828 4.72805C15.8136 4.45476 16.4953 4.31842 17.1828 4.32805C17.9114 4.28751 18.639 4.42479 19.3028 4.72805C19.8961 5.04029 20.4094 5.48516 20.8028 6.02805C21.1987 6.5889 21.4838 7.22022 21.6428 7.88805C21.8166 8.6008 21.8774 9.33644 21.8228 10.0681H14.9228V10.1081ZM18.5928 6.86805C18.3953 6.67693 18.1594 6.52995 17.9008 6.43685C17.6422 6.34376 17.3668 6.30667 17.0928 6.32805C16.747 6.32392 16.4049 6.39918 16.0928 6.54805C15.8365 6.67851 15.6114 6.8627 15.4328 7.08805C15.271 7.29222 15.1519 7.52689 15.0828 7.77805C15.0222 7.99041 14.982 8.20806 14.9628 8.42805H19.2528C19.2024 7.85156 18.9714 7.30566 18.5928 6.86805ZM14.3828 1.72805H19.7428V3.07805H14.3828V1.72805ZM9.98276 13.4281C9.52855 13.7553 9.01605 13.9929 8.47276 14.1281C7.90874 14.2795 7.32674 14.3535 6.74276 14.3481H0.332764V0.848054H6.57276C7.154 0.839237 7.73436 0.896267 8.30276 1.01805C8.77879 1.11486 9.23086 1.30521 9.63276 1.57805C10.0006 1.83193 10.2968 2.17634 10.4928 2.57805C10.7062 3.07673 10.8085 3.61586 10.7928 4.15805C10.813 4.75798 10.6527 5.35017 10.3328 5.85805C9.99095 6.34533 9.52477 6.73208 8.98276 6.97805C9.72038 7.16736 10.3659 7.61428 10.8028 8.23805C11.2144 8.88504 11.4202 9.64169 11.3928 10.4081C11.4078 11.0209 11.274 11.6283 11.0028 12.1781C10.7736 12.6741 10.4227 13.1041 9.98276 13.4281ZM7.81276 3.91805C7.70689 3.72441 7.55163 3.56225 7.36276 3.44805C7.16589 3.32962 6.94897 3.24827 6.72276 3.20805C6.47089 3.17385 6.21695 3.15714 5.96276 3.15805H3.25276V6.31805H6.25276C6.71036 6.34176 7.16222 6.20761 7.53276 5.93805C7.6974 5.78578 7.82391 5.59692 7.90208 5.38672C7.98025 5.17653 8.00789 4.9509 7.98276 4.72805C7.99247 4.44828 7.93413 4.17032 7.81276 3.91805ZM7.93276 8.72805C7.49205 8.4095 6.95587 8.25077 6.41276 8.27805H3.25276V12.0081H6.36276C6.63864 12.0095 6.91377 11.9793 7.18276 11.9181C7.4189 11.8955 7.64916 11.8312 7.86276 11.7281C8.06389 11.5922 8.22593 11.406 8.33276 11.1881C8.4607 10.9131 8.51908 10.6109 8.50276 10.3081C8.54604 10.0181 8.51661 9.72191 8.41712 9.44613C8.31763 9.17035 8.15119 8.92361 7.93276 8.72805Z" fill="#EEEFEF" fill-opacity="0.3"/>
</svg>
