<svg width="17" height="17" viewBox="0 0 17 17" fill="none" xmlns="http://www.w3.org/2000/svg">
<path d="M8.59277 16.728C4.18277 16.728 0.592773 13.138 0.592773 8.72803C0.592773 4.31803 4.18277 0.728027 8.59277 0.728027C13.0028 0.728027 16.5928 4.32803 16.5928 8.72803C16.5928 13.128 13.0028 16.728 8.59277 16.728ZM15.3428 9.82803C15.1128 9.75803 13.2228 9.18803 11.0828 9.53803C11.9728 12.038 12.3828 14.038 12.3828 14.408C13.9428 13.328 14.9928 11.728 15.3928 9.82803H15.3428ZM11.2628 15.028C11.1628 14.428 10.7628 12.338 9.80277 9.84803C9.78277 9.84803 9.77277 9.85803 9.75277 9.85803C5.90277 11.198 4.51277 13.878 4.39277 14.128C5.55277 15.028 6.99277 15.528 8.59277 15.528C9.54277 15.528 10.4928 15.328 11.2928 15.028H11.2628ZM3.51277 13.308C3.66277 13.038 5.54277 9.93803 9.06277 8.79803C9.15277 8.76803 9.24277 8.73803 9.33277 8.71803C9.16277 8.32803 8.97277 7.93803 8.78277 7.55803C5.37277 8.57803 2.06277 8.53803 1.76277 8.52803C1.76277 8.62803 1.76277 8.62803 1.76277 8.73803C1.76277 10.528 2.39277 12.128 3.49277 13.308L3.51277 13.328V13.308ZM1.90277 7.33803C2.21277 7.33803 5.00277 7.33803 8.22277 6.50803C7.09277 4.49803 5.87277 2.80803 5.69277 2.55803C3.77277 3.42803 2.39277 5.22803 1.89277 7.33803H1.90277ZM6.99277 2.12803C7.18277 2.32803 8.39277 4.02803 9.49277 6.12803C11.9228 5.21803 12.9528 3.83803 13.0728 3.65803C11.9128 2.52803 10.2928 1.92803 8.59277 1.90803C8.04277 1.92803 7.49277 1.92803 6.99277 2.12803V2.09803V2.12803ZM13.8828 4.41803C13.7428 4.60803 12.5928 6.07803 10.0628 7.10803C10.2228 7.40803 10.3628 7.80803 10.5628 8.09803C10.6128 8.19803 10.6628 8.29803 10.6628 8.39803C12.9328 8.10803 15.1628 8.59803 15.4628 8.61803C15.4128 7.02803 14.7928 5.52803 13.8928 4.41803H13.8828Z" fill="#EEEFEF" fill-opacity="0.3"/>
</svg>
