<?xml version="1.0" encoding="UTF-8"?>
<svg width="10px" height="9px" viewBox="0 0 10 9" version="1.1" xmlns="http://www.w3.org/2000/svg" xmlns:xlink="http://www.w3.org/1999/xlink">
    <!-- Generator: Sketch 52.5 (67469) - http://www.bohemiancoding.com/sketch -->
    <title>Shape</title>
    <desc>Created with Sketch.</desc>
    <g id="Page-1" stroke="none" stroke-width="1" fill="none" fill-rule="evenodd">
        <g id="home_mobile" transform="translate(-139.000000, -605.000000)" fill="#FFFFFF" fill-rule="nonzero">
            <g id="footer" transform="translate(51.000000, 544.000000)">
                <g id="socials" transform="translate(88.000000, 57.000000)">
                    <path d="M0.0106864977,12.9999293 L2.00708529,12.9999293 L2.00708529,6.57302426 L0.0106864977,6.57302426 L0.0106864977,12.9999293 Z M7.78833415,6.35040493 C6.81944943,6.35040493 5.9525256,6.69214576 5.33753962,7.44646406 L5.33753962,6.55188638 L3.3338213,6.55188638 L3.3338213,13 L5.33753962,13 L5.33753962,9.51302756 C5.33753962,8.77610029 6.03655368,8.05720031 6.91211454,8.05720031 C7.78767539,8.05720031 8.0036012,8.77610029 8.0036012,9.49500027 L8.0036012,12.9993637 L10,12.9993637 L10,9.35148892 C9.9999268,6.81762982 8.75787763,6.35040493 7.78833415,6.35040493 Z M0.999553509,5.93075793 C1.55129885,5.93075793 1.99910702,5.4982444 1.99910702,4.96534362 C1.99910702,4.43244284 1.55129885,4 0.999553509,4 C0.44780817,4 0,4.43251353 0,4.96541431 C0,5.4983151 0.44780817,5.93075793 0.999553509,5.93075793 Z" id="Shape"></path>
                </g>
            </g>
        </g>
    </g>
</svg>