<svg width="16" height="17" viewBox="0 0 16 17" fill="none" xmlns="http://www.w3.org/2000/svg">
<path d="M8.09277 2.12839C10.1928 2.12839 10.4928 2.12839 11.2928 2.12839C12.0928 2.12839 12.4928 2.32839 12.7928 2.42839C13.1928 2.52839 13.3928 2.72839 13.6928 3.02839C13.9928 3.32839 14.1928 3.52839 14.2928 3.92839C14.3928 4.22839 14.4928 4.62839 14.5928 5.42839C14.5928 6.22839 14.5928 6.52839 14.5928 8.62839C14.5928 10.7284 14.5928 11.0284 14.5928 11.8284C14.5928 12.6284 14.3928 13.0284 14.2928 13.3284C14.1928 13.7284 13.9928 13.9284 13.6928 14.2284C13.3928 14.5284 13.1928 14.7284 12.7928 14.8284C12.4928 14.9284 12.0928 15.0284 11.2928 15.1284C10.4928 15.1284 10.1928 15.1284 8.09277 15.1284C5.99277 15.1284 5.69277 15.1284 4.89277 15.1284C4.09277 15.1284 3.69277 14.9284 3.39277 14.8284C2.99277 14.7284 2.79277 14.5284 2.49277 14.2284C2.19277 13.9284 1.99277 13.7284 1.89277 13.3284C1.79277 13.0284 1.69277 12.6284 1.59277 11.8284C1.59277 11.0284 1.59277 10.7284 1.59277 8.62839C1.59277 6.52839 1.59277 6.22839 1.59277 5.42839C1.59277 4.62839 1.79277 4.22839 1.89277 3.92839C1.99277 3.52839 2.19277 3.32839 2.49277 3.02839C2.79277 2.72839 2.99277 2.52839 3.39277 2.42839C3.69277 2.32839 4.09277 2.22839 4.89277 2.12839C5.69277 2.12839 5.99277 2.12839 8.09277 2.12839ZM8.09277 0.728394C5.89277 0.728394 5.69277 0.728394 4.79277 0.728394C3.89277 0.728394 3.39277 0.928394 2.89277 1.12839C2.39277 1.32839 1.89277 1.62839 1.49277 2.02839C0.992773 2.52839 0.692774 2.92839 0.492774 3.52839C0.292774 4.02839 0.192773 4.62839 0.0927734 5.42839C0.0927734 6.32839 0.0927734 6.52839 0.0927734 8.72839C0.0927734 10.9284 0.0927734 11.1284 0.0927734 12.0284C0.0927734 12.9284 0.292774 13.4284 0.492774 13.9284C0.692774 14.4284 0.992774 14.9284 1.39277 15.3284C1.79277 15.7284 2.29277 16.0284 2.79277 16.2284C3.29277 16.4284 3.89277 16.5284 4.69277 16.6284C5.59277 16.6284 5.79277 16.6284 7.99277 16.6284C10.1928 16.6284 10.3928 16.6284 11.2928 16.6284C12.1928 16.6284 12.6928 16.4284 13.1928 16.2284C13.6928 16.0284 14.1928 15.7284 14.5928 15.3284C14.9928 14.9284 15.2928 14.4284 15.4928 13.9284C15.6928 13.4284 15.7928 12.8284 15.8928 12.0284C15.8928 11.1284 15.8928 10.9284 15.8928 8.72839C15.8928 6.52839 15.8928 6.32839 15.8928 5.42839C15.8928 4.52839 15.6928 4.02839 15.4928 3.52839C15.2928 3.02839 14.9928 2.52839 14.5928 2.12839C14.1928 1.72839 13.6928 1.42839 13.1928 1.22839C12.6928 1.02839 12.0928 0.928393 11.2928 0.828393C10.4928 0.728393 10.2928 0.728394 8.09277 0.728394Z" fill="#EEEFEF" fill-opacity="0.3"/>
<path d="M8.09268 4.62842C5.79268 4.62842 3.99268 6.42842 3.99268 8.72842C3.99268 11.0284 5.79268 12.8284 8.09268 12.8284C10.3927 12.8284 12.1927 11.0284 12.1927 8.72842C12.1927 6.42842 10.3927 4.62842 8.09268 4.62842ZM8.09268 11.4284C6.59268 11.4284 5.39268 10.2284 5.39268 8.72842C5.39268 7.22842 6.59268 6.02842 8.09268 6.02842C9.59268 6.02842 10.7927 7.22842 10.7927 8.72842C10.7927 10.2284 9.59268 11.4284 8.09268 11.4284Z" fill="#EEEFEF" fill-opacity="0.3"/>
<path d="M13.2927 4.42841C13.2927 4.92841 12.8927 5.42841 12.2927 5.42841C11.6927 5.42841 11.2927 5.02841 11.2927 4.42841C11.2927 3.82841 11.6927 3.42841 12.2927 3.42841C12.8927 3.42841 13.2927 3.92841 13.2927 4.42841Z" fill="#EEEFEF" fill-opacity="0.3"/>
</svg>
