<svg width="20" height="17" viewBox="0 0 20 17" fill="none" xmlns="http://www.w3.org/2000/svg">
<path d="M19.8028 2.61803C19.0928 2.92803 18.2928 3.12803 17.4928 3.25803C18.3128 2.75803 18.9428 1.96803 19.2428 1.02803C18.4728 1.48803 17.6228 1.82803 16.7128 2.02803C16.0128 1.22803 14.9928 0.728027 13.7928 0.728027C11.5928 0.728027 9.80281 2.53803 9.80281 4.76803C9.80281 5.06803 9.80281 5.36803 9.90281 5.68803C6.63281 5.52803 3.69281 3.92803 1.69281 1.42803C1.39281 2.02803 1.19281 2.72803 1.19281 3.49803C1.19281 4.89803 1.89281 6.09803 2.99281 6.85803C2.34281 6.83803 1.72281 6.65803 1.18281 6.34803C1.18281 6.34803 1.18281 6.34803 1.18281 6.44803C1.18281 8.44803 2.58281 10.048 4.38281 10.408C4.04281 10.498 3.69281 10.548 3.33281 10.548C3.07281 10.548 2.82281 10.518 2.58281 10.478C3.09281 12.078 4.58281 13.278 6.28281 13.278C4.92281 14.358 3.20281 15.008 1.33281 15.008C1.01281 15.008 0.692813 14.988 0.382812 14.948C2.14281 16.028 4.19281 16.728 6.49281 16.728C13.8228 16.728 17.8328 10.578 17.8328 5.23803C17.8328 5.05803 17.8328 4.88803 17.8228 4.71803C18.5928 4.12803 19.2928 3.42803 19.7928 2.61803H19.8028Z" fill="#EEEFEF" fill-opacity="0.3"/>
</svg>
