<?xml version="1.0" encoding="UTF-8"?>
<svg width="21px" height="14px" viewBox="0 0 21 14" version="1.1" xmlns="http://www.w3.org/2000/svg" xmlns:xlink="http://www.w3.org/1999/xlink">
    <!-- Generator: Sketch 52.5 (67469) - http://www.bohemiancoding.com/sketch -->
    <title>Behance</title>
    <desc>Created with Sketch.</desc>
    <g id="Page-1" stroke="none" stroke-width="1" fill="none" fill-rule="evenodd">
        <g id="home_mobile" transform="translate(-215.000000, -603.000000)" fill="#FFFFFF" fill-rule="nonzero">
            <g id="footer" transform="translate(51.000000, 544.000000)">
                <g id="socials" transform="translate(88.000000, 57.000000)">
                    <g id="twitter-logo-silhouette" transform="translate(31.000000, 0.000000)">
                        <g id="behance-logo" transform="translate(45.000000, 2.000000)">
                            <path d="M18.9259211,1.84532019 L13.6748005,1.84532019 L13.6748005,0.540981439 L18.9263596,0.540981439 L18.9263596,1.84532019 L18.9259211,1.84532019 Z M10.179007,7.19398608 C10.5178329,7.71879118 10.6871485,8.35600232 10.6871485,9.10410905 C10.6871485,9.8777471 10.4962483,10.5717703 10.1078701,11.1848144 C9.86079118,11.5904896 9.55402552,11.9331647 9.18542923,12.2090394 C8.77030162,12.5280835 8.27882367,12.7468538 7.71382135,12.8637425 C7.14701624,12.980826 6.53353364,13.0399768 5.87269142,13.0399768 L0,13.0399768 L0,0 L6.29756381,0 C7.88493968,0.0258236659 9.01031555,0.485728538 9.67486079,1.38892343 C10.0736172,1.94286543 10.2711926,2.60755684 10.2711926,3.38017169 C10.2711926,4.17739211 10.0712297,4.81528538 9.66857541,5.299942 C9.44459165,5.57167517 9.11370766,5.81885151 8.67567981,6.04195824 C9.33915313,6.28484687 9.84256845,6.66732947 10.179007,7.19398608 Z M3.00733643,5.14100464 L5.76666821,5.14100464 C6.33371694,5.14100464 6.79211137,5.03322738 7.14516473,4.8177703 C7.49797448,4.60265429 7.67401392,4.22026914 7.67401392,3.67124826 C7.67401392,3.06468445 7.44091879,2.66207889 6.97360789,2.46830394 C6.57192807,2.33367981 6.0579884,2.26434571 5.43437123,2.26434571 L3.00733643,2.26434571 L3.00733643,5.14100464 Z M7.93970534,8.91783759 C7.93970534,8.24047796 7.66285615,7.77219258 7.11027842,7.52092343 C6.80127146,7.37811369 6.36529002,7.30512529 5.80628074,7.29991183 L3.00733643,7.29991183 L3.00733643,10.7749977 L5.7629652,10.7749977 C6.32908817,10.7749977 6.76726218,10.7008886 7.08348028,10.5462877 C7.65374478,10.2620325 7.93970534,9.72105104 7.93970534,8.91783759 Z M20.8742436,6.7964478 C20.9376821,7.22307425 20.9663805,7.84206265 20.9547355,8.65112297 L14.1539513,8.65112297 C14.1914687,9.58983759 14.5155313,10.2462947 15.1301346,10.6219559 C15.5007773,10.857536 15.9501578,10.9725731 16.4763759,10.9725731 C17.0312436,10.9725731 17.4834988,10.832297 17.8316311,10.543949 C18.0213132,10.3911021 18.1886311,10.1753527 18.3332923,9.90313225 L20.826007,9.90313225 C20.7607169,10.4575615 20.4605777,11.019884 19.9212042,11.5913179 C19.0855406,12.49958 17.913536,12.9550023 16.4083573,12.9550023 C15.1649234,12.9550023 14.0690742,12.5709118 13.1178863,11.8055081 C12.1698654,11.0374246 11.6937355,9.79174942 11.6937355,8.06375638 C11.6937355,6.44334571 12.1211903,5.20307889 12.9789745,4.33978886 C13.8399258,3.47489095 14.9510255,3.04441531 16.3206056,3.04441531 C17.1323944,3.04441531 17.8641787,3.18951508 18.5170302,3.48122506 C19.1678353,3.77322738 19.7056984,4.23279118 20.1293039,4.86439907 C20.5126636,5.42063109 20.7592065,6.06378654 20.8742436,6.7964478 Z M18.4206543,7.03977494 C18.3749513,6.39067517 18.1582274,5.89939211 17.7679977,5.56363573 C17.3809838,5.2269536 16.8974965,5.05793039 16.3206056,5.05793039 C15.6927494,5.05793039 15.2079466,5.23859861 14.8634687,5.59369838 C14.516652,5.94806729 14.3008538,6.42984919 14.21242,7.03982367 L18.4206543,7.03982367 L18.4206543,7.03977494 Z" id="Behance"></path>
                        </g>
                    </g>
                </g>
            </g>
        </g>
    </g>
</svg>