<?xml version="1.0" encoding="UTF-8"?>
<svg width="24px" height="20px" viewBox="0 0 24 20" version="1.1" xmlns="http://www.w3.org/2000/svg" xmlns:xlink="http://www.w3.org/1999/xlink">
    <!-- Generator: Sketch 52.5 (67469) - http://www.bohemiancoding.com/sketch -->
    <title>Path</title>
    <desc>Created with Sketch.</desc>
    <g id="Page-1" stroke="none" stroke-width="1" fill="none" fill-rule="evenodd">
        <g id="home_mobile" transform="translate(-170.000000, -601.000000)" fill="#FFFFFF">
            <g id="footer" transform="translate(51.000000, 544.000000)">
                <g id="socials" transform="translate(88.000000, 57.000000)">
                    <g id="twitter-logo-silhouette" transform="translate(31.000000, 0.000000)">
                        <path d="M24,2.34999529 C23.1166652,2.74877971 22.1688598,3.01923074 21.173015,3.1399728 C22.1898402,2.51960153 22.9681944,1.53560568 23.337097,0.366701069 C22.3832915,0.941204739 21.3304662,1.35836816 20.2086605,1.58450981 C19.3103453,0.608145236 18.0325785,0 16.6153213,0 C13.8963364,0 11.6917446,2.24611397 11.6917446,5.01479095 C11.6917446,5.40746235 11.7352349,5.7909842 11.819235,6.15772523 C7.72801263,5.94836441 4.10020278,3.95132588 1.6721596,0.916752674 C1.24772753,1.65630778 1.00627615,2.51804331 1.00627615,3.43791242 C1.00627615,5.17828417 1.87612071,6.71388985 3.19588757,7.61230347 C2.38902351,7.58481488 1.63015953,7.35867323 0.9658055,6.98278266 L0.9658055,7.04543108 C0.9658055,9.47489559 2.66349455,11.5024992 4.91455705,11.963972 C4.502125,12.0770428 4.06722233,12.1396912 3.61730003,12.1396912 C3.29937794,12.1396912 2.99192646,12.1076079 2.69047498,12.0464777 C3.31733875,14.0404797 5.135028,15.4905032 7.28863936,15.5302578 C5.60444053,16.8748816 3.48082922,17.6740087 1.17427643,17.6740087 C0.776864014,17.6740087 0.385412394,17.6495566 0,17.6052472 C2.1791016,19.0308586 4.76612543,19.862069 7.54660057,19.862069 C16.6033997,19.862069 21.553996,12.2191605 21.553996,5.59085284 L21.5374862,4.94147471 C22.5047819,4.23855774 23.3416068,3.35540668 24,2.34999529 Z" id="Path"></path>
                    </g>
                </g>
            </g>
        </g>
    </g>
</svg>