<svg width="17" height="17" viewBox="0 0 17 17" fill="none" xmlns="http://www.w3.org/2000/svg">
<path d="M12.6928 16.728V10.928C12.6928 9.52803 12.1928 8.52803 10.9928 8.52803C9.99277 8.52803 9.49277 9.22803 9.19277 9.82803C9.09277 10.028 9.09277 10.328 9.09277 10.728V16.728H5.69277C5.69277 16.728 5.79277 6.92803 5.69277 5.92803H9.09277V7.42803C9.49277 6.72803 10.2928 5.62803 12.0928 5.62803C14.3928 5.62803 16.0928 7.12803 16.0928 10.528V16.728H12.6928ZM1.99277 4.42803C0.792773 4.42803 0.0927734 3.62803 0.0927734 2.62803C0.0927734 1.52803 0.892773 0.728027 1.99277 0.728027C3.09277 0.728027 3.89277 1.52803 3.89277 2.62803C3.99277 3.62803 3.19277 4.42803 1.99277 4.42803ZM3.69277 16.728H0.292773V5.92803H3.69277V16.728Z" fill="#EEEFEF" fill-opacity="0.3"/>
</svg>
